<svg xmlns="http://www.w3.org/2000/svg" viewBox="0 0 1440 900" font-family="Inter, system-ui, sans-serif">
  <title>Layout 2: Data Table - Sortable columns, row-based, real API data</title>
  <defs>
    <filter id="shadow2" x="-1%" y="-2%" width="102%" height="108%">
      <feDropShadow dx="0" dy="1" stdDeviation="2" flood-opacity="0.06"/>
    </filter>
  </defs>

  <rect width="1440" height="900" fill="#F9FAFB"/>

  <!-- Header -->
  <rect width="1440" height="48" fill="#111827"/>
  <polygon points="20,24 25,10 30,24 16,16 34,16" fill="#818CF8"/>
  <text x="38" y="29" fill="white" font-size="15" font-weight="700">Starhunter</text>
  <text x="140" y="29" fill="#6B7280" font-size="12">/</text>
  <text x="152" y="29" fill="#D1D5DB" font-size="12">Candidates</text>

  <!-- Tabs in header -->
  <text x="1120" y="29" fill="#9CA3AF" font-size="12">Dashboard</text>
  <text x="1200" y="29" fill="white" font-size="12" font-weight="500">Candidates</text>
  <rect x="1196" y="42" width="72" height="2" fill="#818CF8"/>
  <text x="1290" y="29" fill="#9CA3AF" font-size="12">Jobs</text>
  <text x="1340" y="29" fill="#9CA3AF" font-size="12">Analytics</text>
  <circle cx="1420" cy="24" r="14" fill="#374151"/>
  <text x="1413" y="28" fill="#D1D5DB" font-size="10" font-weight="600">SH</text>

  <!-- Title -->
  <text x="40" y="88" fill="#111827" font-size="20" font-weight="700">Candidates</text>
  <text x="170" y="88" fill="#9CA3AF" font-size="14">50</text>

  <!-- Search + Filters -->
  <rect x="40" y="104" width="340" height="36" rx="8" fill="white" stroke="#E5E7EB" stroke-width="1"/>
  <text x="64" y="127" fill="#9CA3AF" font-size="12">Kandidaten suchen...</text>
  <circle cx="56" cy="122" r="5" fill="none" stroke="#9CA3AF" stroke-width="1.2"/>
  <line x1="60" y1="126" x2="63" y2="129" stroke="#9CA3AF" stroke-width="1.2"/>
  <rect x="396" y="104" width="130" height="36" rx="8" fill="white" stroke="#E5E7EB" stroke-width="1"/>
  <text x="412" y="127" fill="#6B7280" font-size="12">All Statuses</text>
  <rect x="540" y="104" width="130" height="36" rx="8" fill="white" stroke="#E5E7EB" stroke-width="1"/>
  <text x="556" y="127" fill="#6B7280" font-size="12">Name A-Z</text>

  <!-- Table header -->
  <rect x="40" y="156" width="1360" height="40" fill="#F3F4F6"/>
  <rect x="44" y="170" width="14" height="14" rx="3" fill="white" stroke="#D1D5DB" stroke-width="1"/>
  <text x="68" y="181" fill="#6B7280" font-size="11" font-weight="600">CANDIDATE</text>
  <text x="340" y="181" fill="#6B7280" font-size="11" font-weight="600">EMAIL</text>
  <text x="580" y="181" fill="#6B7280" font-size="11" font-weight="600">PHONE</text>
  <text x="760" y="181" fill="#6B7280" font-size="11" font-weight="600">LEVEL</text>
  <text x="920" y="181" fill="#6B7280" font-size="11" font-weight="600">STATUS</text>
  <text x="1100" y="181" fill="#6B7280" font-size="11" font-weight="600">CANDIDATE #</text>
  <text x="1260" y="181" fill="#6B7280" font-size="11" font-weight="600">CREATED</text>

  <!-- Row 1: Isabella Rodriguez -->
  <rect x="40" y="196" width="1360" height="52" fill="white"/>
  <line x1="40" y1="248" x2="1400" y2="248" stroke="#F3F4F6" stroke-width="1"/>
  <rect x="44" y="216" width="14" height="14" rx="3" fill="white" stroke="#D1D5DB" stroke-width="1"/>
  <circle cx="82" cy="222" r="16" fill="#DBEAFE"/>
  <text x="76" y="226" fill="#1E40AF" font-size="9" font-weight="600">IR</text>
  <text x="106" y="218" fill="#111827" font-size="13" font-weight="500">Isabella Rodriguez</text>
  <text x="106" y="234" fill="#9CA3AF" font-size="11">C-001</text>
  <text x="340" y="226" fill="#6B7280" font-size="12">IR@sciint.de</text>
  <text x="580" y="226" fill="#374151" font-size="12">0152 786549</text>
  <text x="760" y="226" fill="#374151" font-size="12">Spezialist</text>
  <rect x="920" y="214" width="86" height="20" rx="10" fill="#DBEAFE"/>
  <text x="932" y="228" fill="#1E40AF" font-size="10" font-weight="500">Sucht aktiv</text>
  <text x="1100" y="226" fill="#374151" font-size="12">1</text>
  <text x="1260" y="226" fill="#9CA3AF" font-size="12">Sep 3, 2015</text>

  <!-- Row 2: Karin Nowak -->
  <rect x="40" y="248" width="1360" height="52" fill="#FAFAFA"/>
  <line x1="40" y1="300" x2="1400" y2="300" stroke="#F3F4F6" stroke-width="1"/>
  <rect x="44" y="268" width="14" height="14" rx="3" fill="white" stroke="#D1D5DB" stroke-width="1"/>
  <circle cx="82" cy="274" r="16" fill="#DBEAFE"/>
  <text x="74" y="278" fill="#1E40AF" font-size="9" font-weight="600">KN</text>
  <text x="106" y="270" fill="#111827" font-size="13" font-weight="500">Karin Nowak</text>
  <text x="106" y="286" fill="#9CA3AF" font-size="11">C-003</text>
  <text x="340" y="278" fill="#6B7280" font-size="12">karin@mailings.com</text>
  <text x="580" y="278" fill="#374151" font-size="12">081347654</text>
  <text x="760" y="278" fill="#374151" font-size="12">Management</text>
  <rect x="920" y="266" width="86" height="20" rx="10" fill="#DBEAFE"/>
  <text x="932" y="280" fill="#1E40AF" font-size="10" font-weight="500">Sucht aktiv</text>
  <text x="1100" y="278" fill="#374151" font-size="12">3</text>
  <text x="1260" y="278" fill="#9CA3AF" font-size="12">Sep 3, 2015</text>

  <!-- Row 3: Alexander Schumann -->
  <rect x="40" y="300" width="1360" height="52" fill="white"/>
  <line x1="40" y1="352" x2="1400" y2="352" stroke="#F3F4F6" stroke-width="1"/>
  <rect x="44" y="320" width="14" height="14" rx="3" fill="white" stroke="#D1D5DB" stroke-width="1"/>
  <circle cx="82" cy="326" r="16" fill="#DBEAFE"/>
  <text x="75" y="330" fill="#1E40AF" font-size="9" font-weight="600">AS</text>
  <text x="106" y="322" fill="#111827" font-size="13" font-weight="500">Alexander Schumann</text>
  <text x="106" y="338" fill="#9CA3AF" font-size="11">C-004</text>
  <text x="340" y="330" fill="#6B7280" font-size="12">wz@starhunter.de</text>
  <text x="580" y="330" fill="#374151" font-size="12">089 4670 - 34</text>
  <text x="760" y="330" fill="#374151" font-size="12">Management</text>
  <rect x="920" y="318" width="86" height="20" rx="10" fill="#DBEAFE"/>
  <text x="932" y="332" fill="#1E40AF" font-size="10" font-weight="500">Sucht aktiv</text>
  <text x="1100" y="330" fill="#374151" font-size="12">4</text>
  <text x="1260" y="330" fill="#9CA3AF" font-size="12">Sep 3, 2015</text>

  <!-- Row 4: Julia Mbeki -->
  <rect x="40" y="352" width="1360" height="52" fill="#FAFAFA"/>
  <line x1="40" y1="404" x2="1400" y2="404" stroke="#F3F4F6" stroke-width="1"/>
  <rect x="44" y="372" width="14" height="14" rx="3" fill="white" stroke="#D1D5DB" stroke-width="1"/>
  <circle cx="82" cy="378" r="16" fill="#DBEAFE"/>
  <text x="75" y="382" fill="#1E40AF" font-size="9" font-weight="600">JM</text>
  <text x="106" y="374" fill="#111827" font-size="13" font-weight="500">Julia Mbeki</text>
  <text x="106" y="390" fill="#9CA3AF" font-size="11">C-005</text>
  <text x="340" y="382" fill="#6B7280" font-size="12">Juliambeki@infomail.com</text>
  <text x="580" y="382" fill="#374151" font-size="12">01723587766</text>
  <text x="760" y="382" fill="#374151" font-size="12">Board</text>
  <rect x="920" y="370" width="86" height="20" rx="10" fill="#DBEAFE"/>
  <text x="932" y="384" fill="#1E40AF" font-size="10" font-weight="500">Sucht aktiv</text>
  <text x="1100" y="382" fill="#374151" font-size="12">5</text>
  <text x="1260" y="382" fill="#9CA3AF" font-size="12">Sep 3, 2015</text>

  <!-- Row 5: Katharina Simon -->
  <rect x="40" y="404" width="1360" height="52" fill="white"/>
  <line x1="40" y1="456" x2="1400" y2="456" stroke="#F3F4F6" stroke-width="1"/>
  <rect x="44" y="424" width="14" height="14" rx="3" fill="white" stroke="#D1D5DB" stroke-width="1"/>
  <circle cx="82" cy="430" r="16" fill="#DBEAFE"/>
  <text x="74" y="434" fill="#1E40AF" font-size="9" font-weight="600">KS</text>
  <text x="106" y="426" fill="#111827" font-size="13" font-weight="500">Katharina Simon</text>
  <text x="106" y="442" fill="#9CA3AF" font-size="11">C-006</text>
  <text x="340" y="434" fill="#6B7280" font-size="12">simon@ctu.com</text>
  <text x="580" y="434" fill="#374151" font-size="12">87565453</text>
  <text x="760" y="434" fill="#374151" font-size="12">Management</text>
  <rect x="920" y="422" width="86" height="20" rx="10" fill="#DBEAFE"/>
  <text x="932" y="436" fill="#1E40AF" font-size="10" font-weight="500">Sucht aktiv</text>
  <text x="1100" y="434" fill="#374151" font-size="12">6</text>
  <text x="1260" y="434" fill="#9CA3AF" font-size="12">Sep 3, 2015</text>

  <!-- Row 6: Mark Cruz -->
  <rect x="40" y="456" width="1360" height="52" fill="#FAFAFA"/>
  <line x1="40" y1="508" x2="1400" y2="508" stroke="#F3F4F6" stroke-width="1"/>
  <rect x="44" y="476" width="14" height="14" rx="3" fill="white" stroke="#D1D5DB" stroke-width="1"/>
  <circle cx="82" cy="482" r="16" fill="#DBEAFE"/>
  <text x="74" y="486" fill="#1E40AF" font-size="9" font-weight="600">MC</text>
  <text x="106" y="478" fill="#111827" font-size="13" font-weight="500">Mark Cruz</text>
  <text x="106" y="494" fill="#9CA3AF" font-size="11">C-007</text>
  <text x="340" y="486" fill="#6B7280" font-size="12">cs@starhunter.com</text>
  <text x="580" y="486" fill="#374151" font-size="12">089 534623</text>
  <text x="760" y="486" fill="#374151" font-size="12">Management</text>
  <rect x="920" y="474" width="86" height="20" rx="10" fill="#DBEAFE"/>
  <text x="932" y="488" fill="#1E40AF" font-size="10" font-weight="500">Sucht aktiv</text>
  <text x="1100" y="486" fill="#374151" font-size="12">7</text>
  <text x="1260" y="486" fill="#9CA3AF" font-size="12">Sep 4, 2015</text>

  <!-- Row 7: Werner Lindner -->
  <rect x="40" y="508" width="1360" height="52" fill="white"/>
  <line x1="40" y1="560" x2="1400" y2="560" stroke="#F3F4F6" stroke-width="1"/>
  <rect x="44" y="528" width="14" height="14" rx="3" fill="white" stroke="#D1D5DB" stroke-width="1"/>
  <circle cx="82" cy="534" r="16" fill="#E5E7EB"/>
  <text x="73" y="538" fill="#6B7280" font-size="9" font-weight="600">WL</text>
  <text x="106" y="530" fill="#111827" font-size="13" font-weight="500">Werner Lindner</text>
  <text x="106" y="546" fill="#9CA3AF" font-size="11">C-017</text>
  <text x="340" y="538" fill="#6B7280" font-size="12">lindner@mmb.de</text>
  <text x="580" y="538" fill="#374151" font-size="12">09756454</text>
  <text x="760" y="538" fill="#374151" font-size="12">Spezialist</text>
  <rect x="920" y="526" width="36" height="20" rx="10" fill="#F3F4F6"/>
  <text x="930" y="540" fill="#9CA3AF" font-size="10">--</text>
  <text x="1100" y="538" fill="#374151" font-size="12">17</text>
  <text x="1260" y="538" fill="#9CA3AF" font-size="12">Oct 17, 2015</text>

  <!-- Row 8: Dr. Annika Williams -->
  <rect x="40" y="560" width="1360" height="52" fill="#FAFAFA"/>
  <line x1="40" y1="612" x2="1400" y2="612" stroke="#F3F4F6" stroke-width="1"/>
  <rect x="44" y="580" width="14" height="14" rx="3" fill="white" stroke="#D1D5DB" stroke-width="1"/>
  <circle cx="82" cy="586" r="16" fill="#E5E7EB"/>
  <text x="73" y="590" fill="#6B7280" font-size="9" font-weight="600">AW</text>
  <text x="106" y="582" fill="#111827" font-size="13" font-weight="500">Dr. Annika Williams</text>
  <text x="106" y="598" fill="#9CA3AF" font-size="11">C-021</text>
  <text x="340" y="590" fill="#6B7280" font-size="12">annika.williams@projectlife.de</text>
  <text x="580" y="590" fill="#374151" font-size="12">07564645</text>
  <text x="760" y="590" fill="#374151" font-size="12">Board</text>
  <rect x="920" y="578" width="36" height="20" rx="10" fill="#F3F4F6"/>
  <text x="930" y="592" fill="#9CA3AF" font-size="10">--</text>
  <text x="1100" y="590" fill="#374151" font-size="12">21</text>
  <text x="1260" y="590" fill="#9CA3AF" font-size="12">Nov 23, 2015</text>

  <!-- Pagination -->
  <rect x="40" y="630" width="1360" height="44" fill="white" stroke="#E5E7EB" stroke-width="1"/>
  <text x="60" y="657" fill="#6B7280" font-size="12">Showing 1-8 of 50 candidates</text>
  <rect x="1276" y="640" width="28" height="28" rx="6" fill="#2563EB"/>
  <text x="1286" y="659" fill="white" font-size="12" font-weight="500">1</text>
  <rect x="1312" y="640" width="28" height="28" rx="6" fill="white" stroke="#D1D5DB" stroke-width="1"/>
  <text x="1322" y="659" fill="#374151" font-size="12">2</text>
  <rect x="1348" y="640" width="28" height="28" rx="6" fill="white" stroke="#D1D5DB" stroke-width="1"/>
  <path d="M1358,650 l4,4 -4,4" fill="none" stroke="#6B7280" stroke-width="1.5"/>
</svg>
