<svg xmlns="http://www.w3.org/2000/svg" viewBox="0 0 1440 900" font-family="Inter, system-ui, sans-serif">
  <title>Layout 3: Kanban Board - Candidates grouped by real status columns</title>
  <defs>
    <filter id="shadow3" x="-2%" y="-2%" width="104%" height="108%">
      <feDropShadow dx="0" dy="1" stdDeviation="2" flood-opacity="0.08"/>
    </filter>
  </defs>

  <rect width="1440" height="900" fill="#F3F4F6"/>

  <!-- Header -->
  <rect width="1440" height="52" fill="#1F2937"/>
  <polygon points="24,26 29,12 34,26 20,18 38,18" fill="#818CF8"/>
  <text x="42" y="31" fill="white" font-size="15" font-weight="700">Starhunter</text>
  <text x="200" y="31" fill="#9CA3AF" font-size="12">Dashboard</text>
  <text x="290" y="31" fill="white" font-size="12" font-weight="600">Candidates</text>
  <rect x="286" y="46" width="76" height="2" fill="#818CF8"/>
  <text x="385" y="31" fill="#9CA3AF" font-size="12">Jobs</text>
  <text x="430" y="31" fill="#9CA3AF" font-size="12">Analytics</text>
  <rect x="900" y="10" width="400" height="32" rx="8" fill="#374151"/>
  <text x="924" y="31" fill="#6B7280" font-size="12">Kandidaten suchen...</text>
  <circle cx="1410" cy="26" r="14" fill="#374151"/>
  <text x="1403" y="30" fill="#D1D5DB" font-size="10" font-weight="600">SH</text>

  <!-- Sub-header -->
  <rect x="0" y="52" width="1440" height="44" fill="white"/>
  <line x1="0" y1="96" x2="1440" y2="96" stroke="#E5E7EB" stroke-width="1"/>
  <text x="30" y="79" fill="#111827" font-size="16" font-weight="700">Pipeline View</text>
  <text x="170" y="79" fill="#9CA3AF" font-size="13">50 candidates</text>
  <rect x="1240" y="62" width="80" height="28" rx="6" fill="#EEF2FF" stroke="#818CF8" stroke-width="1"/>
  <text x="1258" y="81" fill="#4F46E5" font-size="11" font-weight="500">Kanban</text>
  <rect x="1330" y="62" width="80" height="28" rx="6" fill="white" stroke="#D1D5DB" stroke-width="1"/>
  <text x="1356" y="81" fill="#6B7280" font-size="11" font-weight="500">Grid</text>

  <!-- Column 1: Sucht aktiv (31 candidates) -->
  <rect x="30" y="110" width="680" height="770" rx="10" fill="#F9FAFB" stroke="#E5E7EB" stroke-width="1"/>
  <rect x="30" y="110" width="680" height="40" rx="10" fill="#EFF6FF"/>
  <rect x="30" y="140" width="680" height="10" fill="#EFF6FF"/>
  <circle cx="50" cy="130" r="5" fill="#3B82F6"/>
  <text x="62" y="135" fill="#1E40AF" font-size="13" font-weight="600">Sucht aktiv</text>
  <rect x="636" y="120" width="56" height="22" rx="11" fill="#DBEAFE"/>
  <text x="655" y="135" fill="#1E40AF" font-size="11" font-weight="600">31</text>

  <!-- Active Card 1: Isabella Rodriguez -->
  <rect x="42" y="160" width="310" height="90" rx="8" fill="white" filter="url(#shadow3)"/>
  <circle cx="66" cy="186" r="16" fill="#DBEAFE"/>
  <text x="60" y="190" fill="#1E40AF" font-size="9" font-weight="600">IR</text>
  <text x="90" y="183" fill="#111827" font-size="13" font-weight="600">Isabella Rodriguez</text>
  <text x="90" y="199" fill="#6B7280" font-size="11">IR@sciint.de</text>
  <text x="62" y="230" fill="#374151" font-size="10">Spezialist</text>
  <text x="160" y="230" fill="#9CA3AF" font-size="10">0152 786549</text>

  <!-- Active Card 2: Karin Nowak -->
  <rect x="42" y="258" width="310" height="90" rx="8" fill="white" filter="url(#shadow3)"/>
  <circle cx="66" cy="284" r="16" fill="#DBEAFE"/>
  <text x="58" y="288" fill="#1E40AF" font-size="9" font-weight="600">KN</text>
  <text x="90" y="281" fill="#111827" font-size="13" font-weight="600">Karin Nowak</text>
  <text x="90" y="297" fill="#6B7280" font-size="11">karin@mailings.com</text>
  <text x="62" y="328" fill="#374151" font-size="10">Management</text>
  <text x="160" y="328" fill="#9CA3AF" font-size="10">081347654</text>

  <!-- Active Card 3: Alexander Schumann -->
  <rect x="42" y="356" width="310" height="90" rx="8" fill="white" filter="url(#shadow3)"/>
  <circle cx="66" cy="382" r="16" fill="#DBEAFE"/>
  <text x="59" y="386" fill="#1E40AF" font-size="9" font-weight="600">AS</text>
  <text x="90" y="379" fill="#111827" font-size="13" font-weight="600">Alexander Schumann</text>
  <text x="90" y="395" fill="#6B7280" font-size="11">wz@starhunter.de</text>
  <text x="62" y="426" fill="#374151" font-size="10">Management</text>
  <text x="160" y="426" fill="#9CA3AF" font-size="10">089 4670 - 34</text>

  <!-- Active Card 4: Julia Mbeki -->
  <rect x="362" y="160" width="310" height="90" rx="8" fill="white" filter="url(#shadow3)"/>
  <circle cx="386" cy="186" r="16" fill="#DBEAFE"/>
  <text x="379" y="190" fill="#1E40AF" font-size="9" font-weight="600">JM</text>
  <text x="410" y="183" fill="#111827" font-size="13" font-weight="600">Julia Mbeki</text>
  <text x="410" y="199" fill="#6B7280" font-size="11">Juliambeki@infomail.com</text>
  <text x="382" y="230" fill="#374151" font-size="10">Board</text>
  <text x="440" y="230" fill="#9CA3AF" font-size="10">01723587766</text>

  <!-- Active Card 5: Katharina Simon -->
  <rect x="362" y="258" width="310" height="90" rx="8" fill="white" filter="url(#shadow3)"/>
  <circle cx="386" cy="284" r="16" fill="#DBEAFE"/>
  <text x="378" y="288" fill="#1E40AF" font-size="9" font-weight="600">KS</text>
  <text x="410" y="281" fill="#111827" font-size="13" font-weight="600">Katharina Simon</text>
  <text x="410" y="297" fill="#6B7280" font-size="11">simon@ctu.com</text>
  <text x="382" y="328" fill="#374151" font-size="10">Management</text>
  <text x="470" y="328" fill="#9CA3AF" font-size="10">87565453</text>

  <!-- Active Card 6: Mark Cruz -->
  <rect x="362" y="356" width="310" height="90" rx="8" fill="white" filter="url(#shadow3)"/>
  <circle cx="386" cy="382" r="16" fill="#DBEAFE"/>
  <text x="378" y="386" fill="#1E40AF" font-size="9" font-weight="600">MC</text>
  <text x="410" y="379" fill="#111827" font-size="13" font-weight="600">Mark Cruz</text>
  <text x="410" y="395" fill="#6B7280" font-size="11">cs@starhunter.com</text>
  <text x="382" y="426" fill="#374151" font-size="10">Management</text>
  <text x="470" y="426" fill="#9CA3AF" font-size="10">089 534623</text>

  <!-- +25 more indicator -->
  <rect x="42" y="456" width="630" height="36" rx="8" fill="white" stroke="#E5E7EB" stroke-width="1" stroke-dasharray="4,4"/>
  <text x="310" y="479" fill="#9CA3AF" font-size="12" text-anchor="middle">+ 25 more candidates</text>

  <!-- Column 2: No Status / empty (19 candidates) -->
  <rect x="730" y="110" width="680" height="770" rx="10" fill="#F9FAFB" stroke="#E5E7EB" stroke-width="1"/>
  <rect x="730" y="110" width="680" height="40" rx="10" fill="#F9FAFB"/>
  <rect x="730" y="140" width="680" height="10" fill="#F9FAFB"/>
  <circle cx="750" cy="130" r="5" fill="#9CA3AF"/>
  <text x="762" y="135" fill="#6B7280" font-size="13" font-weight="600">Kein Status</text>
  <rect x="1336" y="120" width="56" height="22" rx="11" fill="#F3F4F6"/>
  <text x="1355" y="135" fill="#6B7280" font-size="11" font-weight="600">19</text>

  <!-- No-status Card 1: Werner Lindner -->
  <rect x="742" y="160" width="310" height="90" rx="8" fill="white" filter="url(#shadow3)"/>
  <circle cx="766" cy="186" r="16" fill="#E5E7EB"/>
  <text x="757" y="190" fill="#6B7280" font-size="9" font-weight="600">WL</text>
  <text x="790" y="183" fill="#111827" font-size="13" font-weight="600">Werner Lindner</text>
  <text x="790" y="199" fill="#6B7280" font-size="11">lindner@mmb.de</text>
  <text x="762" y="230" fill="#374151" font-size="10">Spezialist</text>
  <text x="852" y="230" fill="#9CA3AF" font-size="10">09756454</text>

  <!-- No-status Card 2: Maria Kuhlmann -->
  <rect x="742" y="258" width="310" height="90" rx="8" fill="white" filter="url(#shadow3)"/>
  <circle cx="766" cy="284" r="16" fill="#E5E7EB"/>
  <text x="757" y="288" fill="#6B7280" font-size="9" font-weight="600">MK</text>
  <text x="790" y="281" fill="#111827" font-size="13" font-weight="600">Maria Kuhlmann</text>
  <text x="790" y="297" fill="#6B7280" font-size="11">mkuhlmann@web.de</text>
  <text x="762" y="328" fill="#374151" font-size="10">Board</text>
  <text x="812" y="328" fill="#9CA3AF" font-size="10">073645372</text>

  <!-- No-status Card 3: Carlo Green -->
  <rect x="742" y="356" width="310" height="90" rx="8" fill="white" filter="url(#shadow3)"/>
  <circle cx="766" cy="382" r="16" fill="#E5E7EB"/>
  <text x="757" y="386" fill="#6B7280" font-size="9" font-weight="600">CG</text>
  <text x="790" y="379" fill="#111827" font-size="13" font-weight="600">Carlo Green</text>
  <text x="790" y="395" fill="#6B7280" font-size="11">green@consultinggroup.com</text>
  <text x="762" y="426" fill="#9CA3AF" font-size="10">01252353</text>

  <!-- No-status Card 4: Dr. Annika Williams -->
  <rect x="1062" y="160" width="310" height="90" rx="8" fill="white" filter="url(#shadow3)"/>
  <circle cx="1086" cy="186" r="16" fill="#E5E7EB"/>
  <text x="1077" y="190" fill="#6B7280" font-size="9" font-weight="600">AW</text>
  <text x="1110" y="183" fill="#111827" font-size="13" font-weight="600">Dr. Annika Williams</text>
  <text x="1110" y="199" fill="#6B7280" font-size="11">annika.williams@projectlife.de</text>
  <text x="1082" y="230" fill="#374151" font-size="10">Board</text>
  <text x="1132" y="230" fill="#9CA3AF" font-size="10">07564645</text>

  <!-- +15 more -->
  <rect x="742" y="456" width="630" height="36" rx="8" fill="white" stroke="#E5E7EB" stroke-width="1" stroke-dasharray="4,4"/>
  <text x="1010" y="479" fill="#9CA3AF" font-size="12" text-anchor="middle">+ 15 more candidates</text>
</svg>
