<svg xmlns="http://www.w3.org/2000/svg" viewBox="0 0 1440 900" font-family="Inter, system-ui, sans-serif">
  <title>Layout 7: Sidebar Filters - Left filter facets + main card grid, real data</title>
  <defs>
    <filter id="shadow7" x="-2%" y="-2%" width="104%" height="108%">
      <feDropShadow dx="0" dy="1" stdDeviation="2" flood-opacity="0.06"/>
    </filter>
  </defs>

  <rect width="1440" height="900" fill="#F9FAFB"/>

  <!-- Header -->
  <rect width="1440" height="52" fill="#111827"/>
  <polygon points="20,26 25,12 30,26 16,18 34,18" fill="#818CF8"/>
  <text x="38" y="31" fill="white" font-size="15" font-weight="700">Starhunter</text>
  <text x="130" y="31" fill="#4B5563" font-size="12">|</text>
  <text x="142" y="31" fill="#D1D5DB" font-size="12">Candidates</text>
  <text x="600" y="31" fill="#9CA3AF" font-size="12">Dashboard</text>
  <text x="690" y="31" fill="white" font-size="12" font-weight="500">Candidates</text>
  <rect x="686" y="46" width="76" height="2" fill="#818CF8"/>
  <text x="790" y="31" fill="#9CA3AF" font-size="12">Jobs</text>
  <text x="835" y="31" fill="#9CA3AF" font-size="12">Analytics</text>
  <rect x="1080" y="10" width="280" height="32" rx="8" fill="#374151"/>
  <text x="1104" y="31" fill="#6B7280" font-size="12">Kandidaten suchen...</text>
  <circle cx="1410" cy="26" r="14" fill="#374151"/>
  <text x="1403" y="30" fill="#D1D5DB" font-size="10" font-weight="600">SH</text>

  <!-- LEFT: Filter facets -->
  <rect x="0" y="52" width="280" height="848" fill="white"/>
  <line x1="280" y1="52" x2="280" y2="900" stroke="#E5E7EB" stroke-width="1"/>

  <text x="24" y="84" fill="#111827" font-size="14" font-weight="700">Filters</text>
  <rect x="220" y="68" width="44" height="22" rx="4" fill="#EEF2FF"/>
  <text x="229" y="83" fill="#4F46E5" font-size="10" font-weight="500">Reset</text>

  <!-- Status filter -->
  <text x="24" y="116" fill="#374151" font-size="12" font-weight="600">Status</text>
  <rect x="24" y="128" width="14" height="14" rx="3" fill="#4F46E5"/>
  <path d="M28,135 l2,2 4,-4" fill="none" stroke="white" stroke-width="1.5"/>
  <text x="44" y="140" fill="#374151" font-size="12">Sucht aktiv</text>
  <text x="220" y="140" fill="#9CA3AF" font-size="11">31</text>

  <rect x="24" y="152" width="14" height="14" rx="3" fill="#4F46E5"/>
  <path d="M28,159 l2,2 4,-4" fill="none" stroke="white" stroke-width="1.5"/>
  <text x="44" y="164" fill="#374151" font-size="12">Kein Status</text>
  <text x="220" y="164" fill="#9CA3AF" font-size="11">19</text>

  <line x1="24" y1="184" x2="256" y2="184" stroke="#E5E7EB" stroke-width="1"/>

  <!-- Level filter -->
  <text x="24" y="208" fill="#374151" font-size="12" font-weight="600">Level</text>
  <rect x="24" y="220" width="14" height="14" rx="3" fill="white" stroke="#D1D5DB" stroke-width="1"/>
  <text x="44" y="232" fill="#6B7280" font-size="12">Management</text>
  <text x="220" y="232" fill="#9CA3AF" font-size="11">9</text>

  <rect x="24" y="244" width="14" height="14" rx="3" fill="white" stroke="#D1D5DB" stroke-width="1"/>
  <text x="44" y="256" fill="#6B7280" font-size="12">Spezialist</text>
  <text x="220" y="256" fill="#9CA3AF" font-size="11">7</text>

  <rect x="24" y="268" width="14" height="14" rx="3" fill="white" stroke="#D1D5DB" stroke-width="1"/>
  <text x="44" y="280" fill="#6B7280" font-size="12">Board</text>
  <text x="220" y="280" fill="#9CA3AF" font-size="11">5</text>

  <rect x="24" y="292" width="14" height="14" rx="3" fill="white" stroke="#D1D5DB" stroke-width="1"/>
  <text x="44" y="304" fill="#6B7280" font-size="12">COO</text>
  <text x="220" y="304" fill="#9CA3AF" font-size="11">1</text>

  <rect x="24" y="316" width="14" height="14" rx="3" fill="white" stroke="#D1D5DB" stroke-width="1"/>
  <text x="44" y="328" fill="#6B7280" font-size="12">Kein Level</text>
  <text x="220" y="328" fill="#9CA3AF" font-size="11">28</text>

  <line x1="24" y1="348" x2="256" y2="348" stroke="#E5E7EB" stroke-width="1"/>

  <!-- Sort -->
  <text x="24" y="372" fill="#374151" font-size="12" font-weight="600">Sort By</text>
  <rect x="24" y="384" width="232" height="32" rx="6" fill="white" stroke="#E5E7EB" stroke-width="1"/>
  <text x="40" y="405" fill="#374151" font-size="12">Name A-Z</text>
  <path d="M238,398 l4,5 4,-5" fill="none" stroke="#9CA3AF" stroke-width="1.2"/>

  <!-- RIGHT: Card grid -->
  <text x="304" y="84" fill="#111827" font-size="18" font-weight="700">Candidates</text>
  <text x="430" y="84" fill="#9CA3AF" font-size="13">50 results</text>

  <!-- Active filter chips -->
  <rect x="304" y="96" width="96" height="24" rx="12" fill="#EEF2FF" stroke="#C7D2FE" stroke-width="1"/>
  <text x="314" y="112" fill="#4F46E5" font-size="10">Sucht aktiv</text>
  <text x="386" y="112" fill="#4F46E5" font-size="10">x</text>

  <rect x="410" y="96" width="90" height="24" rx="12" fill="#EEF2FF" stroke="#C7D2FE" stroke-width="1"/>
  <text x="420" y="112" fill="#4F46E5" font-size="10">Kein Status</text>
  <text x="486" y="112" fill="#4F46E5" font-size="10">x</text>

  <!-- Card 1: Isabella Rodriguez -->
  <rect x="304" y="134" width="362" height="120" rx="10" fill="white" filter="url(#shadow7)"/>
  <circle cx="334" cy="166" r="20" fill="#DBEAFE"/>
  <text x="327" y="171" fill="#1E40AF" font-size="10" font-weight="600">IR</text>
  <text x="362" y="162" fill="#111827" font-size="13" font-weight="600">Isabella Rodriguez</text>
  <text x="362" y="178" fill="#6B7280" font-size="11">IR@sciint.de</text>
  <text x="324" y="206" fill="#374151" font-size="11" font-weight="500">Spezialist</text>
  <rect x="540" y="196" width="76" height="18" rx="9" fill="#DBEAFE"/>
  <text x="550" y="209" fill="#1E40AF" font-size="9" font-weight="500">Sucht aktiv</text>
  <text x="324" y="234" fill="#9CA3AF" font-size="10">0152 786549</text>
  <text x="530" y="234" fill="#D1D5DB" font-size="10">C-001</text>

  <!-- Card 2: Karin Nowak -->
  <rect x="680" y="134" width="362" height="120" rx="10" fill="white" filter="url(#shadow7)"/>
  <circle cx="710" cy="166" r="20" fill="#DBEAFE"/>
  <text x="702" y="171" fill="#1E40AF" font-size="10" font-weight="600">KN</text>
  <text x="738" y="162" fill="#111827" font-size="13" font-weight="600">Karin Nowak</text>
  <text x="738" y="178" fill="#6B7280" font-size="11">karin@mailings.com</text>
  <text x="700" y="206" fill="#374151" font-size="11" font-weight="500">Management</text>
  <rect x="916" y="196" width="76" height="18" rx="9" fill="#DBEAFE"/>
  <text x="926" y="209" fill="#1E40AF" font-size="9" font-weight="500">Sucht aktiv</text>
  <text x="700" y="234" fill="#9CA3AF" font-size="10">081347654</text>

  <!-- Card 3: Werner Lindner -->
  <rect x="1056" y="134" width="362" height="120" rx="10" fill="white" filter="url(#shadow7)"/>
  <circle cx="1086" cy="166" r="20" fill="#E5E7EB"/>
  <text x="1077" y="171" fill="#6B7280" font-size="10" font-weight="600">WL</text>
  <text x="1114" y="162" fill="#111827" font-size="13" font-weight="600">Werner Lindner</text>
  <text x="1114" y="178" fill="#6B7280" font-size="11">lindner@mmb.de</text>
  <text x="1076" y="206" fill="#374151" font-size="11" font-weight="500">Spezialist</text>
  <rect x="1312" y="196" width="36" height="18" rx="9" fill="#F3F4F6"/>
  <text x="1322" y="209" fill="#9CA3AF" font-size="9">--</text>
  <text x="1076" y="234" fill="#9CA3AF" font-size="10">09756454</text>

  <!-- Row 2 -->
  <rect x="304" y="268" width="362" height="120" rx="10" fill="white" filter="url(#shadow7)"/>
  <circle cx="334" cy="300" r="20" fill="#DBEAFE"/>
  <text x="327" y="305" fill="#1E40AF" font-size="10" font-weight="600">AS</text>
  <text x="362" y="296" fill="#111827" font-size="13" font-weight="600">Alexander Schumann</text>
  <text x="362" y="312" fill="#6B7280" font-size="11">wz@starhunter.de</text>
  <text x="324" y="340" fill="#374151" font-size="11" font-weight="500">Management</text>
  <rect x="540" y="330" width="76" height="18" rx="9" fill="#DBEAFE"/>
  <text x="550" y="343" fill="#1E40AF" font-size="9" font-weight="500">Sucht aktiv</text>

  <rect x="680" y="268" width="362" height="120" rx="10" fill="white" filter="url(#shadow7)"/>
  <circle cx="710" cy="300" r="20" fill="#DBEAFE"/>
  <text x="703" y="305" fill="#1E40AF" font-size="10" font-weight="600">JM</text>
  <text x="738" y="296" fill="#111827" font-size="13" font-weight="600">Julia Mbeki</text>
  <text x="738" y="312" fill="#6B7280" font-size="11">Juliambeki@infomail.com</text>
  <text x="700" y="340" fill="#374151" font-size="11" font-weight="500">Board</text>
  <rect x="916" y="330" width="76" height="18" rx="9" fill="#DBEAFE"/>
  <text x="926" y="343" fill="#1E40AF" font-size="9" font-weight="500">Sucht aktiv</text>

  <rect x="1056" y="268" width="362" height="120" rx="10" fill="white" filter="url(#shadow7)"/>
  <circle cx="1086" cy="300" r="20" fill="#E5E7EB"/>
  <text x="1077" y="305" fill="#6B7280" font-size="10" font-weight="600">CG</text>
  <text x="1114" y="296" fill="#111827" font-size="13" font-weight="600">Carlo Green</text>
  <text x="1114" y="312" fill="#6B7280" font-size="11">green@consultinggroup.com</text>
  <text x="1076" y="340" fill="#9CA3AF" font-size="11">--</text>
  <rect x="1312" y="330" width="36" height="18" rx="9" fill="#F3F4F6"/>
  <text x="1322" y="343" fill="#9CA3AF" font-size="9">--</text>

  <!-- Pagination -->
  <rect x="304" y="406" width="1114" height="40" rx="8" fill="white" filter="url(#shadow7)"/>
  <text x="324" y="431" fill="#6B7280" font-size="12">1-6 of 50</text>
  <rect x="1266" y="414" width="28" height="26" rx="6" fill="#4F46E5"/>
  <text x="1276" y="432" fill="white" font-size="11" font-weight="500">1</text>
  <rect x="1302" y="414" width="28" height="26" rx="6" fill="white" stroke="#D1D5DB" stroke-width="1"/>
  <text x="1312" y="432" fill="#374151" font-size="11">2</text>
  <rect x="1338" y="414" width="28" height="26" rx="6" fill="white" stroke="#D1D5DB" stroke-width="1"/>
  <path d="M1348,424 l4,4 -4,4" fill="none" stroke="#6B7280" stroke-width="1.5"/>
</svg>
