<svg xmlns="http://www.w3.org/2000/svg" viewBox="0 0 1440 900" font-family="Inter, system-ui, sans-serif">
  <title>Layout 9: Mosaic/Magazine - Featured large card + asymmetric grid, real data</title>
  <defs>
    <filter id="shadow9" x="-2%" y="-2%" width="104%" height="108%">
      <feDropShadow dx="0" dy="1" stdDeviation="3" flood-opacity="0.08"/>
    </filter>
  </defs>

  <rect width="1440" height="900" fill="#F3F4F6"/>

  <!-- Header -->
  <rect width="1440" height="56" fill="#1F2937"/>
  <polygon points="24,28 29,14 34,28 20,20 38,20" fill="#818CF8"/>
  <text x="44" y="33" fill="white" font-size="16" font-weight="700">Starhunter</text>
  <!-- Pill nav -->
  <rect x="520" y="12" width="400" height="32" rx="16" fill="#111827"/>
  <text x="543" y="33" fill="#9CA3AF" font-size="12">Dashboard</text>
  <rect x="618" y="14" width="96" height="28" rx="14" fill="#374151"/>
  <text x="636" y="33" fill="white" font-size="12" font-weight="500">Candidates</text>
  <text x="732" y="33" fill="#9CA3AF" font-size="12">Jobs</text>
  <text x="793" y="33" fill="#9CA3AF" font-size="12">Analytics</text>
  <circle cx="1400" cy="28" r="16" fill="#374151"/>
  <text x="1393" y="32" fill="#D1D5DB" font-size="10" font-weight="600">SH</text>

  <!-- Title bar -->
  <text x="40" y="92" fill="#111827" font-size="20" font-weight="700">Candidates</text>
  <text x="40" y="112" fill="#6B7280" font-size="13">50 candidates in your pipeline</text>
  <rect x="800" y="72" width="400" height="36" rx="18" fill="white" stroke="#E5E7EB" stroke-width="1"/>
  <circle cx="822" cy="90" r="6" fill="none" stroke="#9CA3AF" stroke-width="1.3"/>
  <line x1="827" y1="95" x2="831" y2="99" stroke="#9CA3AF" stroke-width="1.3"/>
  <text x="840" y="95" fill="#9CA3AF" font-size="12">Kandidaten suchen...</text>
  <rect x="1220" y="72" width="100" height="36" rx="8" fill="white" stroke="#E5E7EB" stroke-width="1"/>
  <text x="1240" y="95" fill="#6B7280" font-size="12">Filter</text>
  <rect x="1330" y="72" width="100" height="36" rx="8" fill="white" stroke="#E5E7EB" stroke-width="1"/>
  <text x="1350" y="95" fill="#6B7280" font-size="12">Sort</text>

  <!-- Featured card: Isabella Rodriguez -->
  <rect x="40" y="130" width="480" height="340" rx="14" fill="white" filter="url(#shadow9)"/>
  <rect x="40" y="130" width="480" height="120" rx="14" fill="#EEF2FF"/>
  <rect x="40" y="236" width="480" height="14" fill="#EEF2FF"/>
  <circle cx="100" cy="210" r="40" fill="white" stroke="#E5E7EB" stroke-width="2"/>
  <text x="84" y="218" fill="#1E40AF" font-size="18" font-weight="600">IR</text>
  <text x="156" y="208" fill="#111827" font-size="18" font-weight="700">Isabella Rodriguez</text>
  <text x="156" y="230" fill="#6366F1" font-size="13">IR@sciint.de</text>
  <rect x="156" y="240" width="86" height="22" rx="11" fill="#DBEAFE"/>
  <text x="168" y="255" fill="#1E40AF" font-size="10" font-weight="500">Sucht aktiv</text>
  <text x="60" y="290" fill="#9CA3AF" font-size="10">LEVEL</text>
  <text x="60" y="308" fill="#111827" font-size="14" font-weight="500">Spezialist</text>
  <text x="300" y="290" fill="#9CA3AF" font-size="10">PHONE</text>
  <text x="300" y="308" fill="#111827" font-size="14" font-weight="500">0152 786549</text>
  <text x="60" y="340" fill="#9CA3AF" font-size="10">INDUSTRIES</text>
  <text x="60" y="358" fill="#111827" font-size="14" font-weight="500">Automobil, Dienstleistungen</text>
  <text x="60" y="390" fill="#9CA3AF" font-size="10">LANGUAGES</text>
  <text x="60" y="408" fill="#111827" font-size="12">Spanisch (Native), English (Fluent), German (Fluent)</text>
  <text x="60" y="440" fill="#9CA3AF" font-size="10">SALARY REQUIREMENT</text>
  <text x="210" y="440" fill="#111827" font-size="12" font-weight="600">80.000</text>

  <!-- Medium card: Karin Nowak -->
  <rect x="536" y="130" width="440" height="160" rx="12" fill="white" filter="url(#shadow9)"/>
  <circle cx="572" cy="168" r="24" fill="#DBEAFE"/>
  <text x="563" y="174" fill="#1E40AF" font-size="12" font-weight="600">KN</text>
  <text x="606" y="162" fill="#111827" font-size="14" font-weight="600">Karin Nowak</text>
  <text x="606" y="180" fill="#6B7280" font-size="12">karin@mailings.com</text>
  <text x="556" y="210" fill="#374151" font-size="12" font-weight="500">Management</text>
  <rect x="860" y="200" width="76" height="18" rx="9" fill="#DBEAFE"/>
  <text x="870" y="213" fill="#1E40AF" font-size="9" font-weight="500">Sucht aktiv</text>
  <text x="556" y="240" fill="#9CA3AF" font-size="10">081347654</text>
  <text x="720" y="240" fill="#9CA3AF" font-size="10">C-003</text>
  <text x="800" y="240" fill="#D1D5DB" font-size="10">Sep 3, 2015</text>

  <!-- Medium card: Alexander Schumann -->
  <rect x="992" y="130" width="440" height="160" rx="12" fill="white" filter="url(#shadow9)"/>
  <circle cx="1028" cy="168" r="24" fill="#DBEAFE"/>
  <text x="1020" y="174" fill="#1E40AF" font-size="12" font-weight="600">AS</text>
  <text x="1062" y="162" fill="#111827" font-size="14" font-weight="600">Alexander Schumann</text>
  <text x="1062" y="180" fill="#6B7280" font-size="12">wz@starhunter.de</text>
  <text x="1012" y="210" fill="#374151" font-size="12" font-weight="500">Management</text>
  <rect x="1316" y="200" width="76" height="18" rx="9" fill="#DBEAFE"/>
  <text x="1326" y="213" fill="#1E40AF" font-size="9" font-weight="500">Sucht aktiv</text>
  <text x="1012" y="240" fill="#9CA3AF" font-size="10">089 4670 - 34</text>
  <text x="1200" y="240" fill="#9CA3AF" font-size="10">C-004</text>

  <!-- Small cards row -->
  <!-- Julia Mbeki -->
  <rect x="536" y="304" width="286" height="166" rx="12" fill="white" filter="url(#shadow9)"/>
  <circle cx="564" cy="334" r="18" fill="#DBEAFE"/>
  <text x="557" y="339" fill="#1E40AF" font-size="10" font-weight="600">JM</text>
  <text x="590" y="330" fill="#111827" font-size="13" font-weight="600">Julia Mbeki</text>
  <text x="590" y="346" fill="#6B7280" font-size="11">Juliambeki@infomail.com</text>
  <text x="556" y="376" fill="#374151" font-size="10">Board</text>
  <rect x="600" y="366" width="76" height="16" rx="8" fill="#DBEAFE"/>
  <text x="610" y="378" fill="#1E40AF" font-size="8" font-weight="500">Sucht aktiv</text>
  <text x="556" y="408" fill="#9CA3AF" font-size="10">01723587766</text>
  <text x="556" y="448" fill="#D1D5DB" font-size="10">C-005</text>

  <!-- Katharina Simon -->
  <rect x="838" y="304" width="286" height="166" rx="12" fill="white" filter="url(#shadow9)"/>
  <circle cx="866" cy="334" r="18" fill="#DBEAFE"/>
  <text x="858" y="339" fill="#1E40AF" font-size="10" font-weight="600">KS</text>
  <text x="892" y="330" fill="#111827" font-size="13" font-weight="600">Katharina Simon</text>
  <text x="892" y="346" fill="#6B7280" font-size="11">simon@ctu.com</text>
  <text x="858" y="376" fill="#374151" font-size="10">Management</text>
  <rect x="940" y="366" width="76" height="16" rx="8" fill="#DBEAFE"/>
  <text x="950" y="378" fill="#1E40AF" font-size="8" font-weight="500">Sucht aktiv</text>
  <text x="858" y="408" fill="#9CA3AF" font-size="10">87565453</text>
  <text x="858" y="448" fill="#D1D5DB" font-size="10">C-006</text>

  <!-- Werner Lindner (no status) -->
  <rect x="1140" y="304" width="292" height="166" rx="12" fill="white" filter="url(#shadow9)"/>
  <circle cx="1168" cy="334" r="18" fill="#E5E7EB"/>
  <text x="1159" y="339" fill="#6B7280" font-size="10" font-weight="600">WL</text>
  <text x="1194" y="330" fill="#111827" font-size="13" font-weight="600">Werner Lindner</text>
  <text x="1194" y="346" fill="#6B7280" font-size="11">lindner@mmb.de</text>
  <text x="1160" y="376" fill="#374151" font-size="10">Spezialist</text>
  <rect x="1240" y="366" width="36" height="16" rx="8" fill="#F3F4F6"/>
  <text x="1250" y="378" fill="#9CA3AF" font-size="8">--</text>
  <text x="1160" y="408" fill="#9CA3AF" font-size="10">09756454</text>
  <text x="1160" y="448" fill="#D1D5DB" font-size="10">C-017</text>

  <!-- Bottom row compact -->
  <rect x="40" y="486" width="340" height="100" rx="10" fill="white" filter="url(#shadow9)"/>
  <circle cx="68" cy="516" r="18" fill="#DBEAFE"/>
  <text x="60" y="521" fill="#1E40AF" font-size="10" font-weight="600">MC</text>
  <text x="94" y="512" fill="#111827" font-size="13" font-weight="600">Mark Cruz</text>
  <text x="94" y="528" fill="#6B7280" font-size="11">cs@starhunter.com</text>
  <text x="60" y="558" fill="#374151" font-size="10">Management</text>
  <rect x="260" y="508" width="76" height="16" rx="8" fill="#DBEAFE"/>
  <text x="270" y="520" fill="#1E40AF" font-size="8" font-weight="500">Sucht aktiv</text>

  <rect x="396" y="486" width="340" height="100" rx="10" fill="white" filter="url(#shadow9)"/>
  <circle cx="424" cy="516" r="18" fill="#DBEAFE"/>
  <text x="416" y="521" fill="#1E40AF" font-size="10" font-weight="600">AK</text>
  <text x="450" y="512" fill="#111827" font-size="13" font-weight="600">Anita Krumbach</text>
  <text x="450" y="528" fill="#6B7280" font-size="11">anita@supermail.com</text>
  <text x="416" y="558" fill="#374151" font-size="10">Management</text>
  <rect x="616" y="508" width="76" height="16" rx="8" fill="#DBEAFE"/>
  <text x="626" y="520" fill="#1E40AF" font-size="8" font-weight="500">Sucht aktiv</text>

  <rect x="752" y="486" width="340" height="100" rx="10" fill="white" filter="url(#shadow9)"/>
  <circle cx="780" cy="516" r="18" fill="#E5E7EB"/>
  <text x="771" y="521" fill="#6B7280" font-size="10" font-weight="600">MK</text>
  <text x="806" y="512" fill="#111827" font-size="13" font-weight="600">Maria Kuhlmann</text>
  <text x="806" y="528" fill="#6B7280" font-size="11">mkuhlmann@web.de</text>
  <text x="772" y="558" fill="#374151" font-size="10">Board</text>
  <rect x="972" y="508" width="36" height="16" rx="8" fill="#F3F4F6"/>
  <text x="982" y="520" fill="#9CA3AF" font-size="8">--</text>

  <!-- Load more -->
  <rect x="1108" y="486" width="324" height="100" rx="10" fill="white" stroke="#E5E7EB" stroke-width="1" stroke-dasharray="6,4"/>
  <text x="1210" y="530" fill="#9CA3AF" font-size="13">+ 42 more</text>
  <text x="1220" y="550" fill="#6B7280" font-size="11">Load more</text>
</svg>
