<svg xmlns="http://www.w3.org/2000/svg" viewBox="0 0 1440 900" font-family="Inter, system-ui, sans-serif">
  <title>Layout 11: Current Solution (fixed) - Unified indigo palette, level colors, active highlight</title>
  <defs>
    <filter id="shadowSm" x="-2%" y="-1%" width="104%" height="106%">
      <feDropShadow dx="0" dy="1" stdDeviation="1" flood-opacity="0.05"/>
    </filter>
    <linearGradient id="p1" x1="0" y1="0" x2="1" y2="1"><stop offset="0%" stop-color="#C4B5A0"/><stop offset="100%" stop-color="#8B7355"/></linearGradient>
    <linearGradient id="p2" x1="0" y1="0" x2="1" y2="1"><stop offset="0%" stop-color="#D4A574"/><stop offset="100%" stop-color="#9B7040"/></linearGradient>
    <linearGradient id="p3" x1="0" y1="0" x2="0" y2="1"><stop offset="0%" stop-color="#8899AA"/><stop offset="100%" stop-color="#556575"/></linearGradient>
    <linearGradient id="p4" x1="0" y1="0" x2="1" y2="1"><stop offset="0%" stop-color="#BBA080"/><stop offset="100%" stop-color="#7D6545"/></linearGradient>
    <linearGradient id="p5" x1="0" y1="0" x2="1" y2="1"><stop offset="0%" stop-color="#90A0B0"/><stop offset="100%" stop-color="#5A6A7A"/></linearGradient>
    <linearGradient id="p6" x1="0" y1="0" x2="1" y2="1"><stop offset="0%" stop-color="#A09080"/><stop offset="100%" stop-color="#705848"/></linearGradient>
    <linearGradient id="p7" x1="0" y1="0" x2="1" y2="1"><stop offset="0%" stop-color="#C0A888"/><stop offset="100%" stop-color="#886848"/></linearGradient>
    <linearGradient id="p8" x1="0" y1="0" x2="1" y2="1"><stop offset="0%" stop-color="#9898A8"/><stop offset="100%" stop-color="#606070"/></linearGradient>
    <linearGradient id="p9" x1="0" y1="0" x2="1" y2="1"><stop offset="0%" stop-color="#B8A898"/><stop offset="100%" stop-color="#786858"/></linearGradient>
  </defs>

  <!-- bg-gray-50 -->
  <rect width="1440" height="900" fill="#F9FAFB"/>

  <!-- ========== HEADER (h-16=64px, bg-gray-900) ========== -->
  <rect width="1440" height="64" fill="#111827"/>
  <path d="M36,32 l2.47,-5.01 L44,27.42 l-4,3.9 L41.45,38 36,34.85 30.55,38 31.6,31.31 27.6,27.42 34.13,26.99Z" fill="#818CF8"/>
  <text x="52" y="37" fill="white" font-size="18" font-weight="700" letter-spacing="-0.025em">Starhunter</text>
  <text x="145" y="37" fill="#6B7280" font-size="14">|</text>
  <text x="157" y="37" fill="#D1D5DB" font-size="14">Dashboard</text>
  <circle cx="1404" cy="32" r="18" fill="#374151"/>
  <text x="1394" y="37" fill="white" font-size="12" font-weight="600">SH</text>

  <!-- ========== SIDEBAR (w-64=256px, bg-gray-800) ========== -->
  <rect x="0" y="64" width="256" height="836" fill="#1F2937"/>
  <rect x="12" y="80" width="232" height="36" rx="4" fill="#374151"/>
  <rect x="24" y="88" width="16" height="16" rx="3" fill="white" opacity="0.3"/>
  <text x="48" y="103" fill="white" font-size="14" font-weight="500">Dashboard</text>
  <rect x="24" y="128" width="16" height="16" rx="3" fill="#D1D5DB" opacity="0.2"/>
  <text x="48" y="141" fill="#D1D5DB" font-size="14" font-weight="500">Candidates</text>
  <rect x="24" y="160" width="16" height="16" rx="3" fill="#D1D5DB" opacity="0.2"/>
  <text x="48" y="173" fill="#D1D5DB" font-size="14" font-weight="500">Jobs</text>
  <rect x="24" y="192" width="16" height="16" rx="3" fill="#D1D5DB" opacity="0.2"/>
  <text x="48" y="205" fill="#D1D5DB" font-size="14" font-weight="500">Analytics</text>
  <rect x="24" y="224" width="16" height="16" rx="3" fill="#D1D5DB" opacity="0.2"/>
  <text x="48" y="237" fill="#D1D5DB" font-size="14" font-weight="500">Settings</text>
  <text x="24" y="884" fill="#6B7280" font-size="12">v1.0.0</text>

  <!-- ========== MAIN CONTENT ========== -->
  <text x="280" y="104" fill="#111827" font-size="24" font-weight="700">Candidates</text>
  <text x="280" y="124" fill="#6B7280" font-size="14">50 candidates found</text>

  <!-- Search (flex-1) -->
  <rect x="280" y="140" width="620" height="40" rx="8" fill="white" stroke="#D1D5DB" stroke-width="1"/>
  <circle cx="300" cy="160" r="6" fill="none" stroke="#9CA3AF" stroke-width="1.5"/>
  <line x1="305" y1="165" x2="309" y2="169" stroke="#9CA3AF" stroke-width="1.5"/>
  <text x="316" y="165" fill="#9CA3AF" font-size="14">Search by name...</text>

  <!-- Filter (w-48=192px) — chevron INSIDE the box -->
  <rect x="912" y="140" width="192" height="40" rx="8" fill="white" stroke="#D1D5DB" stroke-width="1"/>
  <text x="932" y="165" fill="#374151" font-size="14">All Statuses</text>
  <path d="M1080,155 l5,6 5,-6" fill="none" stroke="#9CA3AF" stroke-width="1.5"/>

  <!-- Sort (w-52=208px) — arrows INSIDE the box -->
  <rect x="1116" y="140" width="208" height="40" rx="8" fill="white" stroke="#D1D5DB" stroke-width="1"/>
  <text x="1136" y="165" fill="#374151" font-size="14">Name A-Z</text>
  <path d="M1296,153 l4,-5 4,5 M1296,163 l4,5 4,-5" fill="none" stroke="#9CA3AF" stroke-width="1.5"/>

  <!-- ========== CARD GRID ========== -->
  <!-- Card 1: Isabella Rodriguez — Sucht aktiv (green top line), Spezialist (cyan badge) -->
  <rect x="280" y="200" width="362" height="162" rx="12" fill="white" stroke="#E5E7EB" stroke-width="1" filter="url(#shadowSm)"/>
  <rect x="280" y="200" width="362" height="3" rx="12" fill="#4ADE80"/>
  <circle cx="324" cy="240" r="24" fill="url(#p1)"/>
  <text x="358" y="234" fill="#111827" font-size="14" font-weight="600">Isabella Rodriguez</text>
  <text x="358" y="252" fill="#6B7280" font-size="13">IR@sciint.de</text>
  <!-- Status badge: "Sucht aktiv" now mapped → bg-green-100 text-green-800 -->
  <rect x="530" y="274" width="86" height="22" rx="11" fill="#DCFCE7"/>
  <text x="541" y="289" fill="#166534" font-size="11" font-weight="500">Sucht aktiv</text>
  <!-- Footer: level as colored badge, date -->
  <rect x="300" y="320" width="72" height="22" rx="11" fill="#ECFEFF"/>
  <text x="312" y="335" fill="#0E7490" font-size="11" font-weight="500">Spezialist</text>
  <rect x="388" y="322" width="10" height="10" rx="2" fill="none" stroke="#9CA3AF" stroke-width="1"/>
  <text x="404" y="332" fill="#9CA3AF" font-size="11">9/3/2015</text>

  <!-- Card 2: Karin Nowak — Sucht aktiv, Management (indigo badge) -->
  <rect x="666" y="200" width="362" height="162" rx="12" fill="white" stroke="#E5E7EB" stroke-width="1" filter="url(#shadowSm)"/>
  <rect x="666" y="200" width="362" height="3" rx="12" fill="#4ADE80"/>
  <circle cx="710" cy="240" r="24" fill="url(#p2)"/>
  <text x="744" y="234" fill="#111827" font-size="14" font-weight="600">Karin Nowak</text>
  <text x="744" y="252" fill="#6B7280" font-size="13">karin@mailings.com</text>
  <rect x="916" y="274" width="86" height="22" rx="11" fill="#DCFCE7"/>
  <text x="927" y="289" fill="#166534" font-size="11" font-weight="500">Sucht aktiv</text>
  <rect x="686" y="320" width="90" height="22" rx="11" fill="#E0E7FF"/>
  <text x="696" y="335" fill="#4338CA" font-size="11" font-weight="500">Management</text>
  <rect x="792" y="322" width="10" height="10" rx="2" fill="none" stroke="#9CA3AF" stroke-width="1"/>
  <text x="808" y="332" fill="#9CA3AF" font-size="11">9/3/2015</text>

  <!-- Card 3: Alexander Schumann — Sucht aktiv, Management -->
  <rect x="1052" y="200" width="362" height="162" rx="12" fill="white" stroke="#E5E7EB" stroke-width="1" filter="url(#shadowSm)"/>
  <rect x="1052" y="200" width="362" height="3" rx="12" fill="#4ADE80"/>
  <circle cx="1096" cy="240" r="24" fill="url(#p3)"/>
  <text x="1130" y="234" fill="#111827" font-size="14" font-weight="600">Alexander Schumann</text>
  <text x="1130" y="252" fill="#6B7280" font-size="13">wz@starhunter.de</text>
  <rect x="1302" y="274" width="86" height="22" rx="11" fill="#DCFCE7"/>
  <text x="1313" y="289" fill="#166534" font-size="11" font-weight="500">Sucht aktiv</text>
  <rect x="1072" y="320" width="90" height="22" rx="11" fill="#E0E7FF"/>
  <text x="1082" y="335" fill="#4338CA" font-size="11" font-weight="500">Management</text>
  <rect x="1178" y="322" width="10" height="10" rx="2" fill="none" stroke="#9CA3AF" stroke-width="1"/>
  <text x="1194" y="332" fill="#9CA3AF" font-size="11">9/3/2015</text>

  <!-- Row 2 -->
  <!-- Card 4: Julia Mbeki — Sucht aktiv, Board (purple badge) -->
  <rect x="280" y="386" width="362" height="162" rx="12" fill="white" stroke="#E5E7EB" stroke-width="1" filter="url(#shadowSm)"/>
  <rect x="280" y="386" width="362" height="3" rx="12" fill="#4ADE80"/>
  <circle cx="324" cy="426" r="24" fill="url(#p4)"/>
  <text x="358" y="420" fill="#111827" font-size="14" font-weight="600">Julia Mbeki</text>
  <text x="358" y="438" fill="#6B7280" font-size="13">Juliambeki@infomail.com</text>
  <rect x="530" y="460" width="86" height="22" rx="11" fill="#DCFCE7"/>
  <text x="541" y="475" fill="#166534" font-size="11" font-weight="500">Sucht aktiv</text>
  <rect x="300" y="506" width="58" height="22" rx="11" fill="#F3E8FF"/>
  <text x="314" y="521" fill="#7E22CE" font-size="11" font-weight="500">Board</text>
  <rect x="374" y="508" width="10" height="10" rx="2" fill="none" stroke="#9CA3AF" stroke-width="1"/>
  <text x="390" y="518" fill="#9CA3AF" font-size="11">9/3/2015</text>

  <!-- Card 5: Katharina Simon — Sucht aktiv, Management -->
  <rect x="666" y="386" width="362" height="162" rx="12" fill="white" stroke="#E5E7EB" stroke-width="1" filter="url(#shadowSm)"/>
  <rect x="666" y="386" width="362" height="3" rx="12" fill="#4ADE80"/>
  <circle cx="710" cy="426" r="24" fill="url(#p5)"/>
  <text x="744" y="420" fill="#111827" font-size="14" font-weight="600">Katharina Simon</text>
  <text x="744" y="438" fill="#6B7280" font-size="13">simon@ctu.com</text>
  <rect x="916" y="460" width="86" height="22" rx="11" fill="#DCFCE7"/>
  <text x="927" y="475" fill="#166534" font-size="11" font-weight="500">Sucht aktiv</text>
  <rect x="686" y="506" width="90" height="22" rx="11" fill="#E0E7FF"/>
  <text x="696" y="521" fill="#4338CA" font-size="11" font-weight="500">Management</text>
  <rect x="792" y="508" width="10" height="10" rx="2" fill="none" stroke="#9CA3AF" stroke-width="1"/>
  <text x="808" y="518" fill="#9CA3AF" font-size="11">9/3/2015</text>

  <!-- Card 6: Mark Cruz — Sucht aktiv, Management -->
  <rect x="1052" y="386" width="362" height="162" rx="12" fill="white" stroke="#E5E7EB" stroke-width="1" filter="url(#shadowSm)"/>
  <rect x="1052" y="386" width="362" height="3" rx="12" fill="#4ADE80"/>
  <circle cx="1096" cy="426" r="24" fill="url(#p6)"/>
  <text x="1130" y="420" fill="#111827" font-size="14" font-weight="600">Mark Cruz</text>
  <text x="1130" y="438" fill="#6B7280" font-size="13">cs@starhunter.com</text>
  <rect x="1302" y="460" width="86" height="22" rx="11" fill="#DCFCE7"/>
  <text x="1313" y="475" fill="#166534" font-size="11" font-weight="500">Sucht aktiv</text>
  <rect x="1072" y="506" width="90" height="22" rx="11" fill="#E0E7FF"/>
  <text x="1082" y="521" fill="#4338CA" font-size="11" font-weight="500">Management</text>
  <rect x="1178" y="508" width="10" height="10" rx="2" fill="none" stroke="#9CA3AF" stroke-width="1"/>
  <text x="1194" y="518" fill="#9CA3AF" font-size="11">9/4/2015</text>

  <!-- Row 3 -->
  <!-- Card 7: Anita Krumbach — Sucht aktiv, Management -->
  <rect x="280" y="572" width="362" height="162" rx="12" fill="white" stroke="#E5E7EB" stroke-width="1" filter="url(#shadowSm)"/>
  <rect x="280" y="572" width="362" height="3" rx="12" fill="#4ADE80"/>
  <circle cx="324" cy="612" r="24" fill="url(#p7)"/>
  <text x="358" y="606" fill="#111827" font-size="14" font-weight="600">Anita Krumbach</text>
  <text x="358" y="624" fill="#6B7280" font-size="13">anita@supermail.com</text>
  <rect x="530" y="646" width="86" height="22" rx="11" fill="#DCFCE7"/>
  <text x="541" y="661" fill="#166534" font-size="11" font-weight="500">Sucht aktiv</text>
  <rect x="300" y="692" width="90" height="22" rx="11" fill="#E0E7FF"/>
  <text x="310" y="707" fill="#4338CA" font-size="11" font-weight="500">Management</text>
  <rect x="406" y="694" width="10" height="10" rx="2" fill="none" stroke="#9CA3AF" stroke-width="1"/>
  <text x="422" y="704" fill="#9CA3AF" font-size="11">9/4/2015</text>

  <!-- Card 8: Werner Lindner — NO status (no green line, no badge), Spezialist -->
  <rect x="666" y="572" width="362" height="162" rx="12" fill="white" stroke="#E5E7EB" stroke-width="1" filter="url(#shadowSm)"/>
  <!-- No green top line — empty status is not active -->
  <circle cx="710" cy="612" r="24" fill="url(#p8)"/>
  <text x="744" y="606" fill="#111827" font-size="14" font-weight="600">Werner Lindner</text>
  <text x="744" y="624" fill="#6B7280" font-size="13">lindner@mmb.de</text>
  <!-- No status badge -->
  <rect x="686" y="692" width="72" height="22" rx="11" fill="#ECFEFF"/>
  <text x="698" y="707" fill="#0E7490" font-size="11" font-weight="500">Spezialist</text>
  <rect x="774" y="694" width="10" height="10" rx="2" fill="none" stroke="#9CA3AF" stroke-width="1"/>
  <text x="790" y="704" fill="#9CA3AF" font-size="11">10/17/2015</text>

  <!-- Card 9: Maria Kuhlmann — NO status, Board -->
  <rect x="1052" y="572" width="362" height="162" rx="12" fill="white" stroke="#E5E7EB" stroke-width="1" filter="url(#shadowSm)"/>
  <!-- No green top line -->
  <circle cx="1096" cy="612" r="24" fill="url(#p9)"/>
  <text x="1130" y="606" fill="#111827" font-size="14" font-weight="600">Maria Kuhlmann</text>
  <text x="1130" y="624" fill="#6B7280" font-size="13">mkuhlmann@web.de</text>
  <!-- No status badge -->
  <rect x="1072" y="692" width="58" height="22" rx="11" fill="#F3E8FF"/>
  <text x="1086" y="707" fill="#7E22CE" font-size="11" font-weight="500">Board</text>
  <rect x="1146" y="694" width="10" height="10" rx="2" fill="none" stroke="#9CA3AF" stroke-width="1"/>
  <text x="1162" y="704" fill="#9CA3AF" font-size="11">11/23/2015</text>

  <!-- ========== PAGINATION (now indigo-600 instead of blue-600) ========== -->
  <rect x="280" y="758" width="1044" height="48" rx="12" fill="white" stroke="#E5E7EB" stroke-width="1"/>
  <text x="300" y="787" fill="#4B5563" font-size="14">1–9 of 50</text>
  <!-- Prev -->
  <rect x="1080" y="766" width="36" height="32" rx="8" fill="white" stroke="#D1D5DB" stroke-width="1"/>
  <path d="M1102,778 l-5,5 5,5" fill="none" stroke="#374151" stroke-width="1.5"/>
  <!-- Page 1 active: bg-indigo-600 -->
  <rect x="1124" y="766" width="36" height="32" rx="8" fill="#4F46E5"/>
  <text x="1138" y="787" fill="white" font-size="14" font-weight="500">1</text>
  <rect x="1168" y="766" width="36" height="32" rx="8" fill="white"/>
  <text x="1182" y="787" fill="#374151" font-size="14">2</text>
  <rect x="1212" y="766" width="36" height="32" rx="8" fill="white"/>
  <text x="1226" y="787" fill="#374151" font-size="14">3</text>
  <rect x="1256" y="766" width="36" height="32" rx="8" fill="white"/>
  <text x="1270" y="787" fill="#374151" font-size="14">4</text>
  <!-- Next -->
  <rect x="1300" y="766" width="36" height="32" rx="8" fill="white" stroke="#D1D5DB" stroke-width="1"/>
  <path d="M1314,778 l5,5 -5,5" fill="none" stroke="#374151" stroke-width="1.5"/>
</svg>
